<?xml version="1.0" encoding="utf-8"?>
<!-- Generator: Adobe Illustrator 26.2.1, SVG Export Plug-In . SVG Version: 6.00 Build 0)  -->
<svg version="1.1" id="Layer_1" xmlns="http://www.w3.org/2000/svg" xmlns:xlink="http://www.w3.org/1999/xlink" x="0px" y="0px"
	 viewBox="0 0 512 512" style="enable-background:new 0 0 512 512;" xml:space="preserve">
<style type="text/css">
	.st0{fill:url(#SVGID_1_);}
	.st1{fill:url(#SVGID_00000008141335365032749910000014255772062283385754_);}
	.st2{fill:#654C9F;}
</style>
<g id="Edges">
</g>
<g id="Symbol">
	<g>
		
			<radialGradient id="SVGID_1_" cx="30.2556" cy="393.2554" r="740.4016" gradientTransform="matrix(0.9986 -5.233596e-02 -4.448556e-02 -0.8488 -2.5034 800.5028)" gradientUnits="userSpaceOnUse">
			<stop  offset="0" style="stop-color:#FED576"/>
			<stop  offset="0.2634" style="stop-color:#F47133"/>
			<stop  offset="0.6091" style="stop-color:#BC3081"/>
			<stop  offset="1" style="stop-color:#4C63D2"/>
		</radialGradient>
		<path class="st0" d="M89.3,13.4C72.4,20,58.1,28.7,43.9,43c-14.3,14.2-23,28.5-29.6,45.3C8,104.5,3.7,123.1,2.5,150.4
			s-1.6,36-1.6,105.5s0.3,78.3,1.6,105.5c1.2,27.3,5.6,45.9,11.9,62.1c6.6,16.9,15.3,31.1,29.6,45.4s28.5,23,45.4,29.6
			c16.2,6.3,34.9,10.6,62.1,11.9s36,1.6,105.5,1.6s78.3-0.3,105.5-1.6c27.3-1.2,45.9-5.6,62.1-11.9c16.9-6.6,31.1-15.3,45.4-29.6
			c14.3-14.3,23-28.5,29.6-45.4c6.3-16.2,10.6-34.9,11.9-62.1c1.2-27.3,1.6-36,1.6-105.5s-0.3-78.3-1.6-105.5s-5.6-45.9-11.9-62.1
			C493,71.5,484.3,57.1,470.1,43c-14.3-14.3-28.5-23-45.4-29.6c-16.2-6.3-34.9-10.6-62.1-11.9S326.6,0,257.1,0s-78.3,0.3-105.5,1.6
			C124.1,2.7,105.5,7.1,89.3,13.4z M360.4,47.6c25,1.1,38.5,5.3,47.6,8.8c12,4.7,20.5,10.2,29.5,19.2c9,9,14.5,17.5,19.2,29.5
			c3.5,9.1,7.7,22.6,8.8,47.6c1.2,27,1.5,35.1,1.5,103.5s-0.3,76.5-1.5,103.5c-1.1,25-5.3,38.5-8.8,47.6
			c-4.7,12-10.2,20.5-19.2,29.5c-9,9-17.5,14.5-29.5,19.2c-9.1,3.5-22.6,7.7-47.6,8.8c-27,1.2-35.1,1.5-103.5,1.5
			s-76.5-0.3-103.5-1.5c-25-1.1-38.5-5.3-47.6-8.8c-12-4.7-20.5-10.2-29.5-19.2c-9-9-14.5-17.5-19.2-29.5
			c-3.5-9.1-7.7-22.6-8.8-47.6c-1.2-27-1.5-35.1-1.5-103.5s0.3-76.5,1.5-103.5c1.1-25,5.3-38.5,8.8-47.6c4.7-12,10.2-20.5,19.2-29.5
			S94,61.1,105.9,56.4c9.1-3.5,22.6-7.7,47.6-8.8c27-1.2,35.1-1.5,103.5-1.5S333.5,46.3,360.4,47.6z"/>
		
			<radialGradient id="SVGID_00000119796589595852247890000015948010198196235169_" cx="132.894" cy="282.3248" r="380.2061" gradientTransform="matrix(0.9986 -5.233596e-02 -4.448556e-02 -0.8488 10.1091 609.996)" gradientUnits="userSpaceOnUse">
			<stop  offset="0" style="stop-color:#FED576"/>
			<stop  offset="0.2634" style="stop-color:#F47133"/>
			<stop  offset="0.6091" style="stop-color:#BC3081"/>
			<stop  offset="1" style="stop-color:#4C63D2"/>
		</radialGradient>
		<path style="fill:url(#SVGID_00000119796589595852247890000015948010198196235169_);" d="M125.5,256.1
			c0,72.7,58.9,131.5,131.5,131.5s131.5-58.9,131.5-131.5s-58.8-131.5-131.5-131.5S125.5,183.4,125.5,256.1z M342.3,256.1
			c0,47.2-38.2,85.4-85.4,85.4s-85.4-38.2-85.4-85.4s38.2-85.4,85.4-85.4S342.3,208.9,342.3,256.1z"/>
		<circle class="st2" cx="393.7" cy="119.4" r="30.7"/>
	</g>
</g>
</svg>
